<?xml-stylesheet type="text/css" href="svg-style.css" ?>
<svg width="704" height="704" viewBox="0 0 704 704" fill="none" xmlns="http://www.w3.org/2000/svg">
<circle cx="352" cy="350" r="200" fill="#00C3EE"/>
<g class="grass">
<path fill-rule="evenodd" clip-rule="evenodd" d="M411 182C401.611 182 394 189.611 394 199C394 208.389 401.611 216 411 216H497C506.389 216 514 208.389 514 199C514 189.611 506.389 182 497 182H411ZM181 242C171.611 242 164 249.611 164 259C164 268.389 171.611 276 181 276H267C276.389 276 284 268.389 284 259C284 249.611 276.389 242 267 242H181ZM391 276C381.611 276 374 283.611 374 293C374 302.389 381.611 310 391 310H397.499C396.558 311.253 396 312.812 396 314.5C396 318.642 399.358 322 403.5 322H442.5C446.642 322 450 318.642 450 314.5C450 312.812 449.442 311.253 448.501 310H477C486.389 310 494 302.389 494 293C494 283.611 486.389 276 477 276H391ZM362 489C352.611 489 345 496.611 345 506C345 515.389 352.611 523 362 523H448C457.389 523 465 515.389 465 506C465 496.611 457.389 489 448 489H362ZM242 471C242 464.373 247.373 459 254 459H314C320.627 459 326 464.373 326 471C326 477.627 320.627 483 314 483H254C247.373 483 242 477.627 242 471ZM435 389C428.373 389 423 394.373 423 401C423 407.627 428.373 413 435 413H495C501.627 413 507 407.627 507 401C507 394.373 501.627 389 495 389H435ZM125 439C125 429.611 132.611 422 142 422H228C237.389 422 245 429.611 245 439C245 448.389 237.389 456 228 456H142C132.611 456 125 448.389 125 439ZM65 367C65 357.611 72.6112 350 82 350H168C177.389 350 185 357.611 185 367C185 376.389 177.389 384 168 384H82C72.6112 384 65 376.389 65 367ZM212 331C212 321.611 219.611 314 229 314H315C324.389 314 332 321.611 332 331C332 332.74 331.739 334.419 331.253 336H357C366.389 336 374 343.611 374 353C374 362.389 366.389 370 357 370H271C261.611 370 254 362.389 254 353C254 351.26 254.261 349.581 254.747 348H229C219.611 348 212 340.389 212 331Z" fill="#87C977"/>
</g>
<g class="cloud">
<path fill-rule="evenodd" clip-rule="evenodd" d="M286 199C276.611 199 269 206.611 269 216C269 225.389 276.611 233 286 233H308.832C308.297 234.225 308 235.578 308 237C308 242.523 312.477 247 318 247H369C374.523 247 379 242.523 379 237C379 235.19 378.519 233.493 377.679 232.028C384.275 229.691 389 223.397 389 216C389 206.611 381.389 199 372 199H286ZM376 339C376 329.611 383.611 322 393 322H479C488.389 322 496 329.611 496 339C496 348.389 488.389 356 479 356H393C383.611 356 376 348.389 376 339ZM315 442C305.611 442 298 449.611 298 459C298 468.389 305.611 476 315 476H401C410.389 476 418 468.389 418 459C418 449.611 410.389 442 401 442H315ZM168 401C168 391.611 175.611 384 185 384H271C280.389 384 288 391.611 288 401C288 410.389 280.389 418 271 418H185C175.611 418 168 410.389 168 401ZM230 506C223.925 506 219 510.925 219 517C219 523.075 223.925 528 230 528H287C293.075 528 298 523.075 298 517C298 510.925 293.075 506 287 506H230ZM290 297C290 290.925 294.925 286 301 286H358C364.075 286 369 290.925 369 297C369 303.075 364.075 308 358 308H301C294.925 308 290 303.075 290 297ZM480 401C473.925 401 469 405.925 469 412C469 418.075 473.925 423 480 423H537C543.075 423 548 418.075 548 412C548 405.925 543.075 401 537 401H480ZM31 458C31 448.611 38.6112 441 48 441H134C142.365 441 149.319 447.042 150.736 455H159C165.075 455 170 459.925 170 466C170 472.075 165.075 477 159 477H102C99.6452 477 97.4632 476.26 95.6738 475H48C38.6112 475 31 467.389 31 458ZM42 256C42 249.925 46.9249 245 53 245H110C116.075 245 121 249.925 121 256C121 262.075 116.075 267 110 267H53C46.9249 267 42 262.075 42 256ZM120 311C120 304.925 124.925 300 131 300H188C194.075 300 199 304.925 199 311C199 312.04 198.856 313.046 198.586 314H208C214.075 314 219 318.925 219 325C219 331.075 214.075 336 208 336H151C144.925 336 140 331.075 140 325C140 323.96 140.144 322.954 140.414 322H131C124.925 322 120 317.075 120 311Z" fill="white"/>
</g>
<path fill-rule="evenodd" clip-rule="evenodd" d="M352 550V150C462.457 150 552 239.543 552 350C552 460.457 462.457 550 352 550Z" fill="#333333" fill-opacity="0.2"/>
<path fill-rule="evenodd" clip-rule="evenodd" d="M351.5 580C478.249 580 581 477.249 581 350.5C581 223.751 478.249 121 351.5 121C224.751 121 122 223.751 122 350.5C122 477.249 224.751 580 351.5 580ZM352 550C462.457 550 552 460.457 552 350C552 239.543 462.457 150 352 150C241.543 150 152 239.543 152 350C152 460.457 241.543 550 352 550Z" fill="#D7D7D7"/>
<path fill-rule="evenodd" clip-rule="evenodd" d="M352 704C546.404 704 704 546.404 704 352C704 157.596 546.404 0 352 0C157.596 0 0 157.596 0 352C0 546.404 157.596 704 352 704ZM351.5 580C478.249 580 581 477.249 581 350.5C581 223.751 478.249 121 351.5 121C224.751 121 122 223.751 122 350.5C122 477.249 224.751 580 351.5 580Z" fill="white"/>
</svg>
